<svg width="345" height="49" viewBox="0 0 345 49" fill="none" xmlns="http://www.w3.org/2000/svg">
<path d="M-54.5029 0.375L11.4971 48.1236" stroke="#1E2830" stroke-width="0.75" stroke-miterlimit="10" stroke-linecap="round" stroke-linejoin="round"/>
<path d="M-30.7529 0.375L35.2456 48.1236" stroke="#1E2830" stroke-width="0.75" stroke-miterlimit="10" stroke-linecap="round" stroke-linejoin="round"/>
<path d="M-7.00439 0.375L58.9941 48.1236" stroke="#1E2830" stroke-width="0.75" stroke-miterlimit="10" stroke-linecap="round" stroke-linejoin="round"/>
<path d="M16.7446 0.375L82.7432 48.1236" stroke="#1E2830" stroke-width="0.75" stroke-miterlimit="10" stroke-linecap="round" stroke-linejoin="round"/>
<path d="M40.4932 0.375L106.493 48.1236" stroke="#1E2830" stroke-width="0.75" stroke-miterlimit="10" stroke-linecap="round" stroke-linejoin="round"/>
<path d="M64.2432 0.375L130.242 48.1236" stroke="#1E2830" stroke-width="0.75" stroke-miterlimit="10" stroke-linecap="round" stroke-linejoin="round"/>
<path d="M87.9917 0.375L153.99 48.1236" stroke="#1E2830" stroke-width="0.75" stroke-miterlimit="10" stroke-linecap="round" stroke-linejoin="round"/>
<path d="M111.74 0.375L177.739 48.1236" stroke="#1E2830" stroke-width="0.75" stroke-miterlimit="10" stroke-linecap="round" stroke-linejoin="round"/>
<path d="M135.489 0.375L201.487 48.1236" stroke="#1E2830" stroke-width="0.75" stroke-miterlimit="10" stroke-linecap="round" stroke-linejoin="round"/>
<path d="M159.237 0.375L225.237 48.1236" stroke="#1E2830" stroke-width="0.75" stroke-miterlimit="10" stroke-linecap="round" stroke-linejoin="round"/>
<path d="M182.987 0.375L248.986 48.1236" stroke="#1E2830" stroke-width="0.75" stroke-miterlimit="10" stroke-linecap="round" stroke-linejoin="round"/>
<path d="M206.736 0.375L272.734 48.1236" stroke="#1E2830" stroke-width="0.75" stroke-miterlimit="10" stroke-linecap="round" stroke-linejoin="round"/>
<path d="M230.484 0.375L296.483 48.1236" stroke="#1E2830" stroke-width="0.75" stroke-miterlimit="10" stroke-linecap="round" stroke-linejoin="round"/>
<path d="M254.233 0.375L320.233 48.1236" stroke="#1E2830" stroke-width="0.75" stroke-miterlimit="10" stroke-linecap="round" stroke-linejoin="round"/>
<path d="M277.983 0.375L343.982 48.1236" stroke="#1E2830" stroke-width="0.75" stroke-miterlimit="10" stroke-linecap="round" stroke-linejoin="round"/>
</svg>
